<svg width="21" height="28" fill="none" xmlns="http://www.w3.org/2000/svg"><path d="M20.125 1.75h.219A.665.665 0 0021 1.094V.656C21 .328 20.672 0 20.344 0H.656A.665.665 0 000 .656v.438c0 .383.273.656.656.656h.219C.875 6.781 3.281 12.36 7.93 14 3.227 15.695.875 21.273.875 26.25H.656a.665.665 0 00-.656.656v.438c0 .383.273.656.656.656h19.688a.665.665 0 00.656-.656v-.438c0-.328-.328-.656-.656-.656h-.219c0-4.977-2.46-10.555-7.11-12.25 4.704-1.64 7.11-7.219 7.11-12.25zm-17.5 0h15.75c0 6.07-3.555 10.938-7.875 10.938-4.375 0-7.875-4.868-7.875-10.938zm15.75 24.5H2.625c0-6.016 3.5-10.938 7.875-10.938 4.32 0 7.875 4.922 7.875 10.938zM14.711 8.04c.328-.384 0-1.04-.547-1.04H6.781c-.547 0-.875.656-.547 1.04.11.163.22.327.383.491.11.164.274.219.492.219h6.727c.219 0 .383-.055.492-.219a3 3 0 00.383-.492zM5.359 22.75c-.328 0-.546.219-.656.492 0 .164-.055.328-.11.492a.66.66 0 00.657.766h10.445a.66.66 0 00.657-.766c-.055-.164-.11-.328-.11-.492-.11-.273-.328-.492-.656-.492H5.359z" fill="#5C8EE6"/></svg>