<svg width="29" height="29" fill="none" xmlns="http://www.w3.org/2000/svg"><path d="M27.222 5.36L22.682.82C22.19.328 21.48 0 20.824 0H9.667C8.19.055 7.042 1.203 7.042 2.68v6.398c-.328 0-.656-.055-1.367-.273H5.4c-.273 0-.547.11-.71.273-.985 1.04-.93.985-2.298 1.367-.382.11-.656.383-.765.766C1.3 12.578 1.3 12.523.315 13.508a1.14 1.14 0 00-.273 1.094c.383 1.312.383 1.312 0 2.625-.11.382 0 .82.273 1.093.985.985.985.985 1.313 2.297.11.383.383.656.765.766.11.055.165.055.274.055v5.687c0 .328.11.602.383.766a.99.99 0 00.875.054l3.117-1.586 3.062 1.586c.165.055.274.055.438.055h14.875c1.422 0 2.625-1.148 2.625-2.57V7.219c0-.657-.328-1.367-.82-1.86zm-6.18-3.555c.11.054.273.11.383.218l4.593 4.594c.11.11.165.274.22.438h-5.196v-5.25zM1.847 17.335c.273-1.202.273-1.64 0-2.843.82-.875 1.039-1.258 1.367-2.46 1.203-.329 1.531-.548 2.406-1.423a4.513 4.513 0 002.789 0c.82.875 1.203 1.094 2.406 1.422.329 1.203.492 1.531 1.367 2.461-.328 1.203-.328 1.64 0 2.844-.82.875-1.039 1.258-1.367 2.46-.82.22-1.312.384-2.078 1.04a4.457 4.457 0 00-1.695-.328c-.656 0-1.203.11-1.75.383-.766-.657-1.258-.875-2.078-1.094-.328-1.203-.492-1.531-1.367-2.461zm5.578 7.274a1.066 1.066 0 00-.82 0l-2.188 1.149v-3.336.055a.98.98 0 00.71.273c.22 0 .384-.055.602-.11.383-.273.82-.382 1.313-.382.437 0 .875.11 1.258.328.218.164.383.164.601.164.274 0 .492-.055.711-.273l.055-.055v3.336l-2.242-1.149zm18.867.82c0 .438-.438.876-.875.876h-14v-4.867c.055 0 .11 0 .219-.055.383-.11.656-.383.765-.766.328-1.367.328-1.312 1.313-2.297a1.14 1.14 0 00.273-1.093c-.383-1.313-.383-1.313 0-2.625.11-.383 0-.82-.273-1.094-.985-.985-.985-.985-1.313-2.297a1.083 1.083 0 00-.765-.766c-1.313-.383-1.313-.328-2.297-1.367-.164-.164-.383-.219-.547-.273V2.68c0-.493.383-.93.875-.93h9.625v5.742c0 .711.547 1.258 1.312 1.258h5.688v16.68z" fill="#5C8EE6"/></svg>