<svg width="24" height="24" fill="none" xmlns="http://www.w3.org/2000/svg"><path d="M8.444 4A4.45 4.45 0 004 8.444v7.112A4.45 4.45 0 008.444 20h7.112A4.45 4.45 0 0020 15.556V8.444A4.45 4.45 0 0015.556 4H8.444zm0 1.778h7.112a2.67 2.67 0 012.666 2.666v7.112a2.67 2.67 0 01-2.666 2.666H8.444a2.67 2.67 0 01-2.666-2.666V8.444a2.67 2.67 0 012.666-2.666zm8 .889a.889.889 0 100 1.777.889.889 0 000-1.777zM12 7.556A4.45 4.45 0 007.556 12 4.45 4.45 0 0012 16.444 4.45 4.45 0 0016.444 12 4.45 4.45 0 0012 7.556zm0 1.777A2.67 2.67 0 0114.667 12 2.67 2.67 0 0112 14.667 2.67 2.67 0 019.333 12 2.67 2.67 0 0112 9.333z" fill="#5C8EE6"/></svg>