<svg width="140" height="44" fill="none" xmlns="http://www.w3.org/2000/svg"><g clip-path="url(#clip0_191_1609)"><path fill-rule="evenodd" clip-rule="evenodd" d="M21.993 4.894c2.293 0 4.48.45 6.479 1.27v15.654a6.425 6.425 0 01-10.418 5.035v5.688a11.41 11.41 0 003.993.716c6.978 0 11.468-5.51 11.468-12.198V3.256A21.89 21.89 0 0021.993 0C9.847 0 0 9.847 0 21.993c0 6.936 3.211 13.123 8.228 17.154V32.14a17.023 17.023 0 01-3.334-10.147c0-9.444 7.655-17.1 17.099-17.1z" fill="#fff"/><path fill-rule="evenodd" clip-rule="evenodd" d="M22.062 39.106c-2.293 0-4.48-.45-6.479-1.27V22.181a6.425 6.425 0 0110.418-5.034V11.46a11.411 11.411 0 00-3.993-.716c-6.978 0-11.468 5.51-11.468 12.198v17.803A21.89 21.89 0 0022.062 44c12.146 0 21.993-9.847 21.993-21.993 0-6.936-3.212-13.123-8.229-17.154v7.007a17.023 17.023 0 013.335 10.147c0 9.444-7.655 17.1-17.1 17.1z" fill="#5C8EE6"/><path d="M71.303 22.554a.35.35 0 01-.105.254.403.403 0 01-.276.106h-2.246a.351.351 0 01-.254-.106.51.51 0 01-.148-.254l-.975-4.026h-4.874l-.975 4.026a.508.508 0 01-.148.254.351.351 0 01-.255.106h-2.246a.403.403 0 01-.275-.106.35.35 0 01-.106-.254c0-.022 0-.022.021-.043v-.063l3.475-13.286c.128-.488.318-.89.551-1.166a2.82 2.82 0 01.784-.657c.276-.148.551-.233.848-.275.275-.043.53-.064.763-.064.233 0 .487.021.784.064.275.042.572.127.847.275.276.149.53.382.763.657.233.276.424.678.551 1.166l3.475 13.286c0 .02 0 .042.022.063v.043zM65.201 9.819a.681.681 0 00-.106-.276c-.043-.043-.127-.064-.233-.064-.106 0-.191.021-.233.064a.675.675 0 00-.106.276l-1.526 6.293h3.73L65.2 9.819zm16.592 12.523c0 .148-.022.254-.085.317-.064.064-.19.106-.34.128a3.53 3.53 0 01-.656.106 12.52 12.52 0 01-.954.106l-1.038.063c-.36.021-.678.021-.954.021-.699 0-1.335-.063-1.928-.17a3.762 3.762 0 01-1.547-.656c-.445-.318-.784-.742-1.038-1.314-.254-.572-.381-1.293-.381-2.204V7.594c0-.106.042-.213.127-.297a.419.419 0 01.297-.127h2.097c.106 0 .212.042.297.127.085.084.127.19.127.297v11.145c0 .7.127 1.187.36 1.441.233.254.678.382 1.293.382h3.899c.106 0 .212.042.296.127.085.085.128.19.128.296v1.357zm4.958.148a.419.419 0 01-.127.297.417.417 0 01-.297.127H84.23a.418.418 0 01-.297-.127.419.419 0 01-.128-.297V7.572a.42.42 0 01.128-.297.508.508 0 01.296-.105h2.098a.51.51 0 01.297.105.418.418 0 01.127.297V22.49zm14.875.064a.35.35 0 01-.106.254.4.4 0 01-.275.106h-2.246a.351.351 0 01-.255-.106.51.51 0 01-.148-.255l-.975-4.026h-4.873l-.975 4.026a.511.511 0 01-.148.255.35.35 0 01-.255.106h-2.246a.403.403 0 01-.275-.106.353.353 0 01-.106-.255c0-.02 0-.02.02-.042v-.063L92.24 9.162c.127-.488.318-.89.551-1.166.233-.275.509-.508.784-.657.276-.148.551-.233.848-.275.275-.043.53-.064.763-.064.233 0 .487.021.784.064.275.042.572.127.847.275.276.149.53.382.763.657.233.276.424.678.551 1.166l3.475 13.286c0 .02 0 .042.021.063v.043zM95.524 9.819a.677.677 0 00-.106-.276c-.043-.043-.128-.064-.233-.064-.106 0-.191.021-.233.064a.673.673 0 00-.106.276l-1.526 6.293h3.73l-1.526-6.293zm20.003 12.247a.833.833 0 01-.848.848h-2.14c-.254 0-.487-.042-.699-.106-.233-.064-.424-.276-.593-.657l-4.705-10.32c-.063-.105-.127-.17-.19-.17-.064 0-.106.065-.106.17v10.66a.51.51 0 01-.106.296.42.42 0 01-.297.127h-1.801a.42.42 0 01-.297-.127.421.421 0 01-.127-.297V8.017a.85.85 0 01.254-.614.835.835 0 01.594-.233h2.288c.234 0 .403.042.551.127.128.084.255.275.382.55l4.937 10.892c.042.106.106.17.17.17.063 0 .105-.064.105-.19V7.571c0-.275.128-.402.403-.402h1.822c.276 0 .403.127.403.402v14.494zm12.545.19c0 .15-.043.255-.127.319a1.014 1.014 0 01-.34.17c-.084.02-.233.063-.424.084-.211.043-.466.085-.762.127-.297.021-.636.064-.996.085-.36.021-.763.042-1.166.042a7.665 7.665 0 01-2.013-.275 4.985 4.985 0 01-1.928-1.017c-.593-.488-1.06-1.144-1.462-1.97-.382-.827-.572-1.908-.572-3.222v-3.115c0-1.335.19-2.415.572-3.263.402-.826.869-1.483 1.462-1.97a4.938 4.938 0 011.928-.997A8.57 8.57 0 01124.257 7c.403 0 .806.021 1.166.043.36.02.699.063.996.084.296.043.551.085.762.127.191.043.34.064.424.085a1 1 0 01.34.149c.084.063.127.19.127.338v1.42a.514.514 0 01-.085.318c-.064.085-.191.127-.339.127h-.043c-.19-.021-.402-.042-.657-.063-.275-.022-.55-.022-.847-.043-.297-.02-.594-.02-.911-.042-.318-.021-.615-.021-.89-.021-.445 0-.869.063-1.229.19-.382.149-.7.36-.975.658-.275.317-.487.72-.636 1.228-.148.509-.233 1.145-.233 1.886V16.6c0 .742.085 1.356.233 1.865.149.509.361.911.636 1.23.275.317.593.529.975.656.36.148.784.212 1.229.212.275 0 .572 0 .89-.021.317-.022.614-.022.911-.043.297-.021.572-.042.847-.064.255-.02.467-.02.657-.042h.043c.148 0 .275.042.339.127.063.085.085.19.085.318v1.42zm11.93.086c0 .148-.022.254-.085.317-.064.064-.191.106-.339.128-.17.02-.36.063-.551.085a6.083 6.083 0 01-.763.105c-.318.022-.678.064-1.102.085-.445.021-.975.021-1.61.021-.7 0-1.335-.063-1.929-.17a3.648 3.648 0 01-1.547-.656 3.132 3.132 0 01-1.059-1.314c-.254-.572-.382-1.293-.382-2.204v-7.395c0-.911.128-1.631.382-2.204.254-.572.614-1.017 1.059-1.335.424-.317.954-.53 1.547-.635.594-.106 1.229-.17 1.929-.17.635 0 1.165 0 1.61.021.424.022.784.064 1.102.085.296.021.551.064.763.085.191.042.381.084.551.106.148.021.275.063.339.127.063.064.085.17.085.318v1.356a.418.418 0 01-.128.297.416.416 0 01-.296.127h-4.323c-.615 0-1.059.127-1.293.381-.254.254-.381.742-.381 1.441v2.289h5.743c.105 0 .211.042.296.127.085.085.127.19.127.296v1.526a.417.417 0 01-.127.297.419.419 0 01-.296.127h-5.743v2.733c0 .7.127 1.187.381 1.441.234.254.678.382 1.293.382h4.323c.106 0 .212.042.296.127.085.085.128.19.128.296v1.357z" fill="#fff"/><path d="M65.876 29.987c0 .595-.108 1.095-.311 1.5-.216.405-.5.73-.865.973a3.14 3.14 0 01-1.23.527 6.706 6.706 0 01-1.5.162c-.175 0-.377-.014-.62-.027-.23-.014-.433-.014-.582-.027v3.526a.323.323 0 01-.068.19.267.267 0 01-.189.08h-1.35a.268.268 0 01-.19-.08.268.268 0 01-.081-.19v-9.296c0-.135.04-.23.121-.297a.6.6 0 01.311-.108 19.21 19.21 0 011.216-.135c.46-.028.946-.041 1.446-.041a7.59 7.59 0 011.487.148c.46.095.878.27 1.23.514.364.243.648.568.864.96.203.405.31.905.31 1.5v.12zm-1.878-.135c0-.567-.163-.973-.5-1.203-.338-.243-.852-.364-1.527-.364h-.27c-.122.013-.23.013-.352.013-.121.014-.23.014-.324.014-.108.013-.19.013-.257.026v3.23h.257c.108.014.23.014.351.014.122.013.23.013.352.013.108.014.189.014.243.014.73 0 1.257-.136 1.567-.406.311-.27.46-.676.46-1.23v-.121zm10.648 6.878c0 .108-.054.162-.162.162h-1.65a.193.193 0 01-.161-.081c-.04-.054-.068-.122-.108-.19l-1.946-3.594h-.19c-.175 0-.391-.013-.621-.027-.23-.013-.432-.013-.58-.027v3.648a.325.325 0 01-.068.19.268.268 0 01-.19.08h-1.35a.267.267 0 01-.19-.08.267.267 0 01-.081-.19v-9.296c0-.135.04-.23.121-.297a.6.6 0 01.311-.108c.351-.055.757-.095 1.216-.135.46-.028.946-.041 1.446-.041.514 0 1.014.054 1.487.148.46.109.878.284 1.23.514.364.23.648.54.864.933.203.391.31.878.31 1.459v.121c0 .717-.161 1.311-.5 1.757-.324.446-.77.784-1.337 1l2.122 3.945a.259.259 0 01.027.109zm-2.19-6.932c0-.513-.162-.878-.5-1.108-.337-.23-.85-.338-1.526-.338h-.27c-.122.013-.23.013-.352.013-.122.014-.23.014-.324.014-.108.013-.19.013-.257.027v3.04h.257c.108.014.23.014.351.014.122.013.23.013.352.013.108.014.189.014.243.014.702 0 1.216-.108 1.54-.338.325-.23.487-.635.487-1.23v-.121zm10.864 2.986c0 .743-.094 1.392-.283 1.919-.203.527-.46.96-.811 1.297a3.139 3.139 0 01-1.216.757c-.46.162-.973.243-1.527.243a4.607 4.607 0 01-1.54-.243A3.138 3.138 0 0176.727 36a3.465 3.465 0 01-.798-1.297c-.203-.527-.297-1.176-.297-1.919V30.96c0-.743.094-1.378.297-1.919.19-.527.46-.973.798-1.31a3.093 3.093 0 011.216-.744 4.608 4.608 0 011.54-.243c.554 0 1.068.08 1.527.243.473.163.878.405 1.216.743.352.338.608.784.81 1.311.19.54.285 1.176.285 1.919v1.824zm-1.878-1.824c0-.906-.162-1.554-.486-1.973-.31-.405-.81-.608-1.473-.608-.676 0-1.175.203-1.486.608-.325.419-.487 1.067-.487 1.973v1.824c0 .905.162 1.554.487 1.96.31.418.81.621 1.486.621.662 0 1.162-.203 1.473-.622.324-.405.486-1.054.486-1.959V30.96zm10.918 1.905c0 1.338-.364 2.365-1.108 3.067-.73.717-1.783 1.068-3.134 1.068-.257 0-.5 0-.77-.014-.27-.013-.528-.027-.77-.04-.258-.014-.474-.04-.677-.054-.202-.014-.364-.04-.459-.054-.121-.014-.203-.054-.256-.122-.068-.067-.095-.162-.095-.297v-9.094c0-.135.027-.23.095-.297.053-.068.135-.108.256-.122.095-.014.257-.04.46-.054.202-.013.418-.04.675-.054.243-.013.5-.027.77-.04.27-.014.514-.014.77-.014 1.352 0 2.406.351 3.135 1.054.744.716 1.108 1.743 1.108 3.08v1.987zm-1.878-1.986c0-.5-.054-.92-.175-1.243a2.12 2.12 0 00-.5-.798 1.961 1.961 0 00-.757-.405 4.222 4.222 0 00-.946-.108c-.257 0-.473 0-.649.014-.175.013-.337.013-.486.026v7.027c.149.014.31.014.486.027.176.014.392.014.65.014.337 0 .648-.041.945-.122.284-.068.54-.203.757-.405a1.96 1.96 0 00.5-.784c.121-.325.175-.743.175-1.243v-2zm10.986 2.297c0 .716-.095 1.324-.27 1.81-.189.487-.446.879-.771 1.176a2.92 2.92 0 01-1.175.635c-.46.136-.96.203-1.5.203s-1.04-.068-1.486-.203a2.763 2.763 0 01-1.176-.635c-.338-.297-.595-.689-.77-1.175-.19-.487-.284-1.095-.284-1.811v-6.067a.27.27 0 01.081-.19.322.322 0 01.19-.067h1.337c.068 0 .135.027.19.068a.267.267 0 01.08.189v6.08c0 .379.027.717.081 1 .055.284.15.528.298.717.135.189.324.324.554.418.23.095.54.136.905.136s.662-.041.905-.136c.23-.094.42-.23.568-.418.135-.19.23-.433.284-.717.054-.283.08-.621.08-1v-6.08a.27.27 0 01.082-.19.322.322 0 01.189-.067h1.338a.32.32 0 01.189.068.266.266 0 01.081.189v6.067zm7.932 3.297c0 .095-.027.162-.081.203a.653.653 0 01-.216.108c-.055.013-.149.04-.271.054a9.067 9.067 0 01-.486.08c-.189.014-.405.041-.635.055-.23.013-.487.027-.743.027-.406 0-.838-.054-1.284-.176a3.181 3.181 0 01-1.23-.648c-.378-.311-.675-.73-.932-1.257-.243-.527-.365-1.216-.365-2.054V30.88c0-.852.122-1.54.365-2.081.257-.527.554-.946.932-1.257.365-.31.784-.513 1.23-.635a5.475 5.475 0 011.284-.162c.256 0 .513.013.743.027.23.014.446.04.635.054.189.027.351.054.486.081.122.027.216.04.271.054a.653.653 0 01.216.095c.054.04.081.121.081.216v.905a.33.33 0 01-.054.203c-.041.054-.122.081-.216.081h-.027a16.064 16.064 0 00-.419-.04c-.176-.014-.352-.014-.541-.028-.189-.013-.378-.013-.581-.027-.203-.013-.392-.013-.567-.013-.284 0-.554.04-.784.122-.243.094-.446.23-.622.418-.176.203-.311.46-.405.784-.095.325-.149.73-.149 1.203v1.986c0 .473.054.865.149 1.19.094.324.229.58.405.783.176.203.379.338.622.419.23.094.5.135.784.135.175 0 .364 0 .567-.013.203-.014.392-.014.581-.028l.541-.04c.162-.014.297-.014.419-.027h.027c.094 0 .175.027.216.081.04.054.054.121.054.203v.905zm8.108-8.297a.22.22 0 01-.082.176.322.322 0 01-.189.067h-2.364v8.203a.27.27 0 01-.082.189.266.266 0 01-.189.08h-1.338a.268.268 0 01-.189-.08.268.268 0 01-.081-.19V28.42h-2.364a.325.325 0 01-.19-.067.218.218 0 01-.081-.176V27.11a.27.27 0 01.081-.19.324.324 0 01.19-.067h6.607a.32.32 0 01.189.068.268.268 0 01.082.189v1.067zm3.229 8.446a.268.268 0 01-.081.189.268.268 0 01-.189.08h-1.338a.266.266 0 01-.189-.08.268.268 0 01-.081-.19V27.11a.27.27 0 01.081-.19.32.32 0 01.189-.067h1.338a.32.32 0 01.189.068.266.266 0 01.081.189v9.513zm9.445-3.838c0 .743-.094 1.392-.284 1.919-.202.527-.459.96-.81 1.297a3.145 3.145 0 01-1.217.757 4.577 4.577 0 01-1.527.243c-.567 0-1.08-.081-1.54-.243a3.142 3.142 0 01-1.216-.757 3.457 3.457 0 01-.797-1.297c-.203-.527-.297-1.176-.297-1.919V30.96c0-.743.094-1.378.297-1.919.189-.527.459-.973.797-1.31a3.1 3.1 0 011.216-.744 4.61 4.61 0 011.54-.243c.555 0 1.068.08 1.527.243.473.163.879.405 1.217.743.351.338.608.784.81 1.311.19.54.284 1.176.284 1.919v1.824zm-1.878-1.824c0-.906-.162-1.554-.487-1.973-.31-.405-.81-.608-1.473-.608-.675 0-1.175.203-1.486.608-.324.419-.486 1.067-.486 1.973v1.824c0 .905.162 1.554.486 1.96.311.418.811.621 1.486.621.663 0 1.163-.203 1.473-.622.325-.405.487-1.054.487-1.959V30.96zm11.242 5.392a.532.532 0 01-.54.54h-1.365c-.162 0-.311-.027-.446-.068-.149-.04-.27-.175-.378-.418l-3-6.581c-.041-.068-.081-.108-.121-.108-.041 0-.068.04-.068.108v6.797a.322.322 0 01-.068.189.266.266 0 01-.189.08h-1.148a.268.268 0 01-.19-.08.268.268 0 01-.081-.19v-9.229a.532.532 0 01.541-.54h1.459c.149 0 .257.027.351.081.082.054.162.176.244.352l3.148 6.945c.027.068.068.108.108.108.041 0 .068-.04.068-.121v-7.108c0-.176.081-.257.257-.257h1.162c.175 0 .256.081.256.257v9.243z" fill="#5C8EE6"/></g><defs><clipPath id="clip0_191_1609"><path fill="#fff" d="M0 0h140v44H0z"/></clipPath></defs></svg>