<svg width="24" height="24" fill="none" xmlns="http://www.w3.org/2000/svg"><path d="M4.313 9.969c.718.562 1.625 1.25 4.812 3.562.625.469 1.781 1.5 2.875 1.5 1.125 0 2.25-1.031 2.906-1.5 3.188-2.312 4.094-3 4.813-3.562.125-.094.281 0 .281.156V16.5c0 .844-.656 1.5-1.5 1.5h-13A1.5 1.5 0 014 16.5v-6.375c0-.156.188-.25.313-.156zM12 14c-.719.031-1.75-.906-2.281-1.281-4.156-3-4.469-3.281-5.406-4.031A.711.711 0 014 8.094V7.5C4 6.687 4.688 6 5.5 6h13A1.5 1.5 0 0120 7.5v.594c0 .25-.094.469-.281.594-.938.75-1.25 1.03-5.407 4.03-.53.376-1.562 1.313-2.312 1.282z" fill="#5C8EE6"/></svg>