<svg width="24" height="24" fill="none" xmlns="http://www.w3.org/2000/svg"><path d="M21.444 16.757c-.799-1.437-2.855-3.164-3.704-3.915a.552.552 0 01-.046-.789c1.62-1.741 2.916-3.742 3.363-4.95.196-.535-.211-1.099-.785-1.099h-1.668c-.55 0-.87.197-1.024.511-1.347 2.76-2.502 3.954-3.31 4.652a.702.702 0 01-1.16-.528V6.961a.926.926 0 00-.93-.922l-3.046-.035a.461.461 0 00-.373.738l.503.722c.19.25.292.555.292.867l-.003 3.252c0 .565-.685.841-1.092.445-1.377-1.34-2.572-4.079-3.002-5.388a.927.927 0 00-.882-.636L2.935 6a.926.926 0 00-.9 1.173c1.501 5.268 4.58 10.28 10.069 10.823a.925.925 0 001.007-.921v-1.71c0-.49.384-.91.878-.923h.052c1.452 0 3.077 2.112 3.646 3.1a.92.92 0 00.8.458h2.21c.644 0 1.058-.684.747-1.243z" fill="#5C8EE6"/></svg>