<svg width="25" height="28" fill="none" xmlns="http://www.w3.org/2000/svg"><path d="M17.117 19.25c-1.586 0-2.297.875-4.867.875-2.625 0-3.336-.875-4.922-.875C3.281 19.25 0 22.586 0 26.633 0 27.398.602 28 1.367 28h21.711c.766 0 1.422-.602 1.422-1.367 0-4.047-3.336-7.383-7.383-7.383zm-15.367 7c.164-2.898 2.625-5.195 5.578-5.25 1.094 0 2.133.875 4.922.875 2.79 0 3.773-.875 4.867-.875 2.953.055 5.414 2.352 5.578 5.25H1.75zm3.063-17.5h.656a6.399 6.399 0 00-.219 1.75c0 3.883 3.117 7 7 7 3.828 0 7-3.117 7-7-.055-.602-.11-1.148-.273-1.75h.71a.431.431 0 00.438-.438v-.874A.47.47 0 0019.687 7h-.437c0-2.79-1.914-5.14-4.54-5.852C14.493.492 13.837.055 13.126 0h-1.75c-.766.055-1.422.492-1.64 1.148C7.164 1.86 5.25 4.211 5.25 7h-.438a.431.431 0 00-.437.438v.875c0 .273.164.437.438.437zm10.062-5.742A4.555 4.555 0 0117.5 7h-2.625V3.008zm-3.5-1.258h1.75V7h-1.75V1.75zM7 7c0-1.75 1.04-3.281 2.625-3.992V7H7zm.328 1.75h9.844c.164.547.273 1.148.328 1.75 0 2.898-2.406 5.25-5.25 5.25A5.251 5.251 0 017 10.5c0-.602.11-1.203.328-1.75z" fill="#5C8EE6"/></svg>